<svg width="7" height="10" viewBox="0 0 7 10" fill="none" xmlns="http://www.w3.org/2000/svg">
<path d="M3.55909 9.12C2.51109 9.12 1.69909 8.752 1.12309 8.016C0.555095 7.28 0.271095 6.248 0.271095 4.92C0.271095 3.488 0.591095 2.38 1.23109 1.596C1.87909 0.812 2.77109 0.42 3.90709 0.42C4.35509 0.42 4.79909 0.504 5.23909 0.672C5.6791 0.832 6.05509 1.064 6.36709 1.368L5.86309 2.52C5.5671 2.248 5.2511 2.048 4.91509 1.92C4.57909 1.784 4.23509 1.716 3.88309 1.716C3.18709 1.716 2.65509 1.96 2.28709 2.448C1.91909 2.936 1.73509 3.664 1.73509 4.632V4.98C1.90309 4.54 2.17509 4.196 2.55109 3.948C2.92709 3.7 3.35909 3.576 3.8471 3.576C4.33509 3.576 4.76709 3.692 5.1431 3.924C5.51909 4.156 5.81509 4.476 6.03109 4.884C6.24709 5.292 6.35509 5.76 6.35509 6.288C6.35509 6.832 6.2351 7.32 5.9951 7.752C5.76309 8.176 5.43509 8.512 5.0111 8.76C4.59509 9 4.11109 9.12 3.55909 9.12ZM3.47509 7.896C3.90709 7.896 4.2551 7.756 4.51909 7.476C4.7911 7.188 4.9271 6.812 4.9271 6.348C4.9271 5.884 4.7911 5.508 4.51909 5.22C4.2551 4.932 3.90709 4.788 3.47509 4.788C3.04309 4.788 2.69109 4.932 2.41909 5.22C2.15509 5.508 2.02309 5.884 2.02309 6.348C2.02309 6.812 2.15509 7.188 2.41909 7.476C2.69109 7.756 3.04309 7.896 3.47509 7.896Z" fill="white"/>
</svg>
